<svg xmlns="http://www.w3.org/2000/svg" viewBox="0 0 1000 1000" class="">
    <path d="M176.71 280.25c-9.77-.76-19.28.88-28.58 3.82-.4.13-1.08.46-1.11.64s.59.82 1 1c2.89 1.51 5.67 3.47 8.74 4.3 7.69 2.1 15.51 3.69 23.29 5.4 6.38 1.42 12.47 3.5 17.88 7.25a12.54 12.54 0 015.71 8.73c.31 2.14-.21 2.77-2.41 2.69-3.2-.11-6.4-.26-9.58-.52-1.84-.16-2.74.67-3.35 2.3-1.71 4.59-3.52 9.14-5.29 13.7-3.26 8.39-6.8 16.64-11.65 24.25-2.89 4.52-4.68 4.44-7.54-.14-1.27-2-2.49-4.07-3.75-6.1-.63-1-1.24-1-2 0-2.4 3.28-5 6.45-7.25 9.81a25.65 25.65 0 01-8.21 7.35c-1.74 1.06-2.83.58-3.48-1.35-.61-1.77-1-3.61-1.52-5.43-.32-1.22-.72-1.27-1.77-.52-5.11 3.66-10.25 7.26-15.47 10.74a12.94 12.94 0 01-4.51 1.78c-2.67.54-4.06-.93-3.83-3.62a15.2 15.2 0 014-8.56c1.82-2.15 3.81-4.22 5.4-6.53A72.89 72.89 0 01136 336.05a100.29 100.29 0 009.6-8.18 31 31 0 005.4-8.07c1.87-3.92.36-7-3.77-8.2-5-1.47-9.53 0-13.29 3.34a38.48 38.48 0 00-6.07 6.92c-8.27 12-15 24.66-18.54 38.91a41.77 41.77 0 01-3.44 8.71c-1.27 2.5-4.1 2.43-5.63.07a11.77 11.77 0 01-1.26-2.73c-.59-1.73-1.07-3.49-1.61-5.22-.67-2.1-1.25-2.31-3.06-1a43.65 43.65 0 01-4.14 3.24 63.78 63.78 0 01-9.59 4.66c-2.66.93-4-.49-3.46-3.3a37.1 37.1 0 012.37-6.7c.65-1.51.18-2.18-1.29-2.24-2.83-.12-5.66-.19-8.48-.14a3.88 3.88 0 00-1.77.94c-2.63 1.85-5.06 4.06-7.9 5.47-4.65 2.32-9.54 4.15-14.35 6.14-.44.16-1.38.32-1.45.12s.86-.55 1.31-.79a4.13 4.13 0 01.7-.24 60.47 60.47 0 0019.21-10.61c.35-.3 1-.64.9-1.1s-.88-.43-1.34-.51c-10.59-1.7-19.65-6.72-28.05-13.1a12 12 0 01-2.52-2.52c-1.78-2.44-.73-5 2.27-5.39 1.61-.21 3.27 0 4.89-.09 3.93-.31 7.89-.53 11.77-1.15 2.42-.39 2.43-1.2.92-3.09-2.33-2.95-4.6-6-6.7-9.1a12.81 12.81 0 01-1.7-4.34c-.56-2.45.37-3.94 2.86-4.38a27.66 27.66 0 016.55-.4c4.32.3 8.62.89 12.93 1.33.4.06 1 .19 1.24-.15s-.24-.8-.45-1.15a49.75 49.75 0 01-2.79-4.68c-1.23-2.71-.55-4.91 1.94-6.55a23.16 23.16 0 014.19-2.11c2.52-1 5.1-1.8 7.64-2.71.34-.12.93-.16.94-.53s-.59-.44-.92-.6c-2.63-1.35-5.33-2.56-7.9-4a15.77 15.77 0 01-6.59-7.07c-1.25-2.65-.65-4.61 2.06-5.67a39 39 0 017.16-1.56 55.75 55.75 0 015.9-.8c.35 0 .87.08 1-.3s-.29-.77-.53-1.09a34.25 34.25 0 01-3.38-4.49c-2-3.88-.38-7.13 4-7.31a34.25 34.25 0 0110.23 1c8.3 2.23 15.35 7.09 22.52 11.61a10.12 10.12 0 012.69 2c.36.44 1 1.12.55 1.62s-1.17.17-1.67-.07c-1.45-.73-2.63-2-4-2.86-6-3.54-10.39-6.36-16.49-9.71-3.26-1.8-9.18-2.6-13-2.29s-5 2.47-3 5.89a21.88 21.88 0 001.93 2.55c.55.69 1.21 1.29 1.71 2 1 1.4.65 2.41-1 2.76s-3.6.56-5.4.78a35.68 35.68 0 00-8.14 1.94 2.49 2.49 0 00-1.48 3.26 12.91 12.91 0 004.77 5.5 48.52 48.52 0 0011.92 5.55c1.22.36 3.09-.1 4.34-.35 3.64-.72 7.18-2 10.83-2.49a40 40 0 019.15.12 3.73 3.73 0 013.53 3.18 3.59 3.59 0 01-2.53 4 24.83 24.83 0 01-7.22 1.75c-5.33.22-10.44-1.26-15.49-2.87a3.9 3.9 0 00-2.18-.27c-4.52 1.51-9.08 2.95-13.48 4.78-3.19 1.32-3.51 2.94-1.83 6 .72 1.32 1.72 2.49 2.4 3.82a3.08 3.08 0 01.34 2.4c-.32.55-1.44.72-2.24.95a3.5 3.5 0 01-1.31-.11c-3.37-.44-6.72-1-10.1-1.27a53 53 0 00-8.45.11c-2.08.17-2.63 1.12-2 3.13a17.13 17.13 0 002.13 4.36c2.06 2.92 4.31 5.71 6.48 8.57 1.3 1.73 1.19 3-.67 4.06a13.68 13.68 0 01-4.19 1.56c-3.9.72-7.82 1.24-11.73 1.86-.47.08-1.22 0-1.37.44s.48.86.84 1.14c1.47 1.17 3 2.33 4.51 3.41 7.38 5.13 15.32 8.88 24.39 9.76 1.15.11 2.73 0 3.42-.68 3.65-3.62 7.23-7.35 10.58-11.26 7.64-8.93 15-18.05 22.7-27 10.31-12 22-22.31 36.91-28.33 1.94-.79 2-.69.42-2.37-3.71-4.08-8-7.49-10.26-12.66-.15-.35-.56-1.2-.25-1.44s.64.45.89.74q5.55 6.49 11.07 13a2.31 2.31 0 003 .62 53.74 53.74 0 016.66-2 92.84 92.84 0 0151.29 1.89c.35.11 1 .33 1.1.18s-.45-.56-.73-.76c-17-11.69-32.3-25.38-48.3-38.27-21.46-17.3-38.5-38.12-52.43-61.74a151.59 151.59 0 00-20.23-27.41c-5.32-5.64-11-10.87-18.35-13.89-3.27-1.35-6.55-2.19-10.09-1.13a3.3 3.3 0 00-2.58 3.47c0 2 1.49 4.56 3.32 5.07.84.23 2.62-.12 2.75-.56a4.65 4.65 0 00-.44-3.27c-.61-1.09-1.67-.77-2.54.06-.21.19-.65.42-.95.22s-.21-.71-.16-1a2.7 2.7 0 013.34-1.69c1.75.51 3.14 3.17 2.79 5.26a3.81 3.81 0 01-4.29 3.08c-2.8-.26-5.26-3.42-5.2-6.67s1.1-4.93 4.31-5.49a18.42 18.42 0 018 0c3.63 1.06 7 3.05 10.5 4.63.47.22 1.09 1 1.43.65s-.45-.88-.69-1.31c-4.22-7.42-8.47-14.84-12.66-22.28-.4-.71-1.36-2.05-.65-2.43s1.2 1.13 1.61 1.81c5.07 8.32 9.75 16.91 15.26 24.92 5 7.27 10.94 13.91 16.46 20.83.11.13.21.44.41.32s0-.46-.11-.66c-3.11-8-6.12-16-9.34-23.86a94.19 94.19 0 01-7-32.44c-.33-9.59 0-19.18.11-28.79a67.62 67.62 0 01.71-7.08c0-.35.21-1.09.6-1s.18.83.16 1.24a26.28 26.28 0 00-.3 2.62c.2 11.36.2 22.72.74 34.07s4.06 22 8.07 32.59c7.34 19.45 16.49 37.9 28.43 54.93 4.47 6.38 9.1 12.64 13.68 18.94.32.44 1.71 2.16 2 2a22.91 22.91 0 00-1.2-2.39 51.58 51.58 0 01-4.7-22.12 30.69 30.69 0 011.29-7.91 3.2 3.2 0 012.28-1.84c.69-.08 1.77.84 2.24 1.59a16.77 16.77 0 011.69 4c1.13 3.59 2.16 7.22 3.25 10.83.67 2.25.62 2.25 2.35.7s3.5-3.06 5.33-4.5a6.23 6.23 0 017.53-.5c3.17 1.79 6.42 3.46 9.69 5.06a53.81 53.81 0 005.6 2.21c.33.12 1 .1 1.19-.22s-.24-.75-.5-.95c-1.09-.86-2.24-1.62-3.32-2.48a53.8 53.8 0 01-5.05-4.2c-1.29-1.3-.92-2.68.72-3.51a21.66 21.66 0 012.81-1.07c7.28-2.5 14.41-5.31 20.33-10.44.64-.55 1.93-1.18 1.64-2s-1.68-.38-2.51-.38c-7.93.08-15.88.09-23.52-2.32a58 58 0 01-8.44-4 1.78 1.78 0 01-.79-1.52 2.44 2.44 0 011.5-1.15 15.21 15.21 0 012.8-.35 69.55 69.55 0 0021.23-5.62 16.39 16.39 0 007.92-6.43c.78-1.32.42-1.86-1-1.82-1.88.06-3.77.27-5.64.2-1 0-2.44 0-2.89-.83s.52-1.86.89-2.73c1.54-3.7 3.15-7.36 4.69-11.06.19-.46.44-1.3.06-1.59s-1 .21-1.4.39c-.93.38-1.82.85-2.77 1.19-2.22.78-3.32 0-3.51-2.37-.13-1.74-.3-3.49-.48-5.24-.12-1.16-.52-1.49-1.69-.77-2.19 1.35-4.49 2.51-6.75 3.76a3.84 3.84 0 01-3.76 0 4.34 4.34 0 00-2.93-.15 6.6 6.6 0 00-2.62 1.79c-4.21 4.4-8.35 8.87-12.53 13.29a3.21 3.21 0 00-.74 3.29 23.23 23.23 0 01-.29 13.19c-1 2.88-2.1 5.69-4.74 7.51-1.65 1.13-3.05 1.37-4.76.32s-1.59-2.27-1.35-4a14.13 14.13 0 011-3.37c1.83-4.21 3.26-8.41 5.66-12.27 1.84-3 1.2-6.05 0-9.12a128.09 128.09 0 01-6.82-27c-.32-2-.81-4.07-1.26-6.09-.11-.46-.14-1.28-.6-1.32s-.69.71-.8 1.14c-.76 2.77-1.57 5.54-2.13 8.36s-1.11 3.22-3.66 1.62a18.65 18.65 0 00-9.14-3.19c-.65 0-1.64-.23-2 .35s.37 1.34.77 1.84c1.61 2 3.39 3.87 5 5.92 3.51 4.51 2.63 7.47-2.7 9.47-2 .76-4.23 1.26-6.21 2.19-3.46 1.63-3.92 5.13-1 7.6a25.84 25.84 0 004.35 2.58c3.26 1.76 6.56 3.43 9.78 5.25.46.26 1.22 1.14.86 1.67s-1.22.08-1.72-.13c-3.45-1.49-6.92-3-10.29-4.64a18 18 0 01-4.93-3.37c-3.14-3.21-2.5-7.72 1.32-10.13a24.92 24.92 0 014-1.74c1.68-.69 3.41-1.29 5.06-2.06a2.33 2.33 0 001.17-3.59 31.93 31.93 0 00-2.43-3.56c-1.28-1.7-2.78-3.27-3.91-5.06-1.76-2.74-1-4.08 2.18-4.26a17.78 17.78 0 019.9 2.57c1.43.82 1.59.41 2-1a77.7 77.7 0 012.75-8.57 2.81 2.81 0 012-1.51c.5 0 1.3 1 1.57 1.76a19.14 19.14 0 011 4 150.26 150.26 0 008.55 32c1 2.52 1 1.92 1.93 1 3.53-3.84 7.45-7.6 11.13-11.29a18.55 18.55 0 014.17-3.26c1.59-.85 2.49-.76 4 .6 1 .9 2-.1 3-.71 2.22-1.29 4.49-2.52 6.72-3.8s2.91-1 3.41 1.47a35.2 35.2 0 01.69 5.79c.06 1.66.69 1.82 2 1.15s2.79-1.44 4.21-2.1c.63-.29 1.41-1 2-.63s.39 1.45.25 2.09a46.64 46.64 0 01-5.19 14.08c-.64 1.06-.54 1.41.75 1.29 1.81-.16 3.63-.32 5.44-.38 3.32-.1 4.41 1.74 2.79 4.72a14.68 14.68 0 01-6.65 6.48 52.49 52.49 0 01-9.26 3.67c-5.22 1.31-10.58 2.11-15.87 3.14-.41.09-1.12-.11-1.21.31s.62.62 1 .81a27.71 27.71 0 003.61 1.6 59.89 59.89 0 0017.86 2.38c3.33 0 6.67-.12 10 0 2.94.11 3.79 2 2 4.28a20.57 20.57 0 01-3.68 3.48c-6 4.72-13.1 7.37-20.3 9.7-.57.17-1.48.21-1.6.8s.69 1 1.16 1.41c1.25 1 2.53 1.85 3.81 2.77a34.68 34.68 0 012.95 2.33c1.08 1 1.77 2.28.93 3.7s-2.25 1.15-3.57 1a3.61 3.61 0 01-.9-.28c-5-2.26-10-4.42-14.87-6.84-2.17-1.09-4.08-1.13-6 .3-2.06 1.53-4.05 3.19-6.05 4.8-1.47 1.17-2.33 1-3-.68-.45-1.1-.75-2.26-1.14-3.4-1.37-4-2.73-7.95-4.14-11.92-.17-.44-.35-1.18-.88-1.16s-.74.86-.84 1.35a23.46 23.46 0 00-.6 4.09c-.34 11.94 3.8 22.54 9.83 32.56a8.27 8.27 0 001.6 1.84c10.5 9.56 20.94 19.19 31.55 28.63a351.32 351.32 0 0084.47 55.84c16 7.53 32.26 14.63 48.39 21.95q13.91 6.3 27.78 12.66a14.28 14.28 0 001.39.48c-.31-.41-.65-.81-1-1.2-2.62-2.53-5.39-4.93-7.85-7.6-9.39-10.2-15.69-22.24-20.64-35-.18-.46-.43-.89-.64-1.34-.25.47-.54.91-.76 1.39-1.5 3.31-2.75 6.76-4.56 9.89s-4.75 5.31-8.68 5a24.94 24.94 0 01-14.71-6.49c-3.92-3.45-5.34-7.76-5.75-12.67-.17-2.15-.7-2.59-2.89-2.51-1.31 0-2.61.4-3.92.42-3.49.06-5.16-1.82-4.57-5.24a46.43 46.43 0 011.65-6.57c2.36-7.16 1.69-9.88-3.92-14.78a17.3 17.3 0 01-2.23-2c-1.79-2.33-3.61-4.65-5.16-7.14-.81-1.3-2-2.91-.89-4.53s2.95-.87 4.55-.67c.35.05.83.35 1.07 0s-.25-.78-.43-1.17c-1.55-3.15-3.29-6.23-4.61-9.47a11.57 11.57 0 01-.62-5.14c.16-2 1.82-3.14 3.86-3.06a16.93 16.93 0 012.24.28c4.79.82 4.75.75 5.19-4 .37-4.24.91-8.49 1.53-12.71.39-2.73 1.44-3.31 4-2.49a29.81 29.81 0 014.4 1.64c1.64.85 2 .24 2.23-1.31.46-3.92 1-7.86 1.6-11.76.16-1 .57-2.55 1.62-2.73s1.78 1 2.37 1.84a17.65 17.65 0 011.4 2.32c2.12 5.1 4.15 9.37 5.78 14.63 2.43 7.92 4.46 16 6.29 24.07 3.43 15.14 7.17 30.19 12 45 .2.51.43 1 .68 1.5a11.53 11.53 0 00.79-1.57 22.15 22.15 0 015-9c1.82-1.84 4-2.89 6.47-1.92a24.67 24.67 0 016.77 3.54c6 5 11.83 10.32 17.75 15.47 3.41 3 6.78 6 10.35 8.77a15.89 15.89 0 005.38 2.6 3.89 3.89 0 003.28-.94c1-1.08-.15-2.22-1-3-2.32-2.12-4.73-4.13-7.07-6.24a22.46 22.46 0 01-3-3.08c-1.05-1.37-.62-2.3 1.07-2.73a5.4 5.4 0 011.49-.2c5.57.2 10-2.53 14.32-5.54 1-.67 2.59-1.54 2.4-2.74s-1.92-1.33-3-1.77c-3-1.27-3.45-3.09-1.23-5.49 1.5-1.62 3.09-3.14 4.56-4.77a18.74 18.74 0 004.28-8.89c.1-.52.07-1.45-.45-1.72s-1.07.26-1.48.55c-2 1.51-3.93 3.12-6 4.61-.6.44-1.46 1.23-2.14.86s-.49-1.62-.51-2.44c-.09-4.38-.09-8.76-.17-13.14 0-.52.08-1.44-.45-1.57s-.82.72-1.1 1.16c-4.36 6.83-8.68 13.69-13.07 20.51a18.91 18.91 0 01-3.76 4.41c-3.22 2.61-6.93 1.25-7.34-2.85a25.86 25.86 0 01.64-9.27c1.63-5.92 4-11.64 5.76-17.53 1.45-4.75 2.53-9.62 1.59-14.67-.32-1.69-.78-2-1.95-.71-1.66 1.77-3 3.82-4.54 5.73-.82 1-1.05 3.05-2.76 2.61s-1.58-2.43-1.6-3.86a34.09 34.09 0 00-4.06-15.15c-.41-.8-.76-2.22-1.61-2.18s-1 1.4-1.35 2.17c-1.23 2.84-2.31 5.71-3.55 8.52-1 2.24-2.83 2.68-4.72 1.17a14 14 0 01-2.67-2.65c-5.64-7.86-13-13.76-21.24-18.63a11.71 11.71 0 01-1.53-1.08c-.14-.12-.29-.51-.19-.65s.38-.12.54-.08a6.72 6.72 0 011.05.41c8.95 4.2 16.93 9.6 22.67 17.87a24.19 24.19 0 002 2.51c1.64 1.81 2.4 1.64 3.28-.59 1.17-2.92 2.26-5.86 3.56-8.71.36-.81 1.37-1.83 2.06-1.85s1.68 1 2.08 1.8a38.89 38.89 0 014.51 16.21 12.09 12.09 0 00.24 2.24c.11.44.23 1.15.69 1.23s.67-.55.89-.89c.87-1.38 1.6-2.86 2.55-4.18a22.31 22.31 0 013.32-3.81c2.17-1.86 4-1.3 4.86 1.42a22.75 22.75 0 01.58 11.35c-1.54 7.9-4.76 15.22-7.83 22.58a16.1 16.1 0 00-1.24 8.28c.32 2.63 2.2 3.5 4.26 1.86a14.3 14.3 0 003.2-3.65c4.48-7.13 8.82-14.35 13.32-21.45.63-1 1.65-2.65 2.85-2.36s1.41 2.24 1.46 3.39c.21 4.26.16 8.53.22 12.79 0 .47-.15 1.21.24 1.4s.8-.34 1.12-.6c1.71-1.39 3.32-2.91 5.1-4.18.72-.51 2.13-1 2.64-.63a4.51 4.51 0 011.7 2.84 8.67 8.67 0 01-.66 3.46c-1.28 4.36-4.13 7.69-7.23 10.83-2.78 2.8-2.76 2.82.75 4.26l.33.16c2.64 1.16 3.13 2.91 1.08 4.94a31.3 31.3 0 01-5.49 4.24c-3.62 2.26-7.52 3.78-11.92 3.55-.39 0-1-.06-1.2.33s.33.8.62 1.08c.89.87 1.85 1.69 2.8 2.51 2.29 2 4.64 3.85 6.85 5.91 1.07 1 1.85 2.36 1.13 3.91a3.82 3.82 0 01-3.91 2.1 4.83 4.83 0 01-2.18-.49 80.63 80.63 0 01-9.21-5.79c-7.32-5.83-14.38-12-21.63-17.89a29.29 29.29 0 00-6.22-3.84c-3.37-1.53-4.81-1.24-6.67 1.92-2 3.32-3.3 7-5 10.52a5.3 5.3 0 000 4.52 127 127 0 0023.93 37.26c4.45 4.9 9.12 9.57 15.08 12.65 3.29 1.71 6.6 3.37 10 4.87a397 397 0 0182.28 48.51c13.23 10.2 23.84 23.1 33.78 36.46.27.37.89 1.05.53 1.32s-.79-.48-1.09-.8c-.57-.58-1.09-1.22-1.6-1.85a212.83 212.83 0 00-59.64-51.4c-12.47-7.18-24.68-14.9-37.57-21.19-22.75-11.1-45.93-21.31-69-31.84a20.14 20.14 0 00-5.35-1.66c-12.86-2-25.59-.57-38.17 2.13a55.59 55.59 0 00-25.33 12.4c-4.24 3.69-7.83 7.85-9.38 13.36s1.3 9.79 7 10.42c2.43.27 3.77-.7 4-2.89a3.76 3.76 0 00-3.41-4.18 2.33 2.33 0 00-1.82.85c-.21.35.42 1.19.67 1.8.15.33.68.6.5 1s-1 .39-1.18.23a4.31 4.31 0 01-1.54-1.87 2.57 2.57 0 011.67-3c2.24-1 5.18.55 6.17 3.21s-.06 5.12-2.75 5.8a8.75 8.75 0 01-8.49-2.45 7.88 7.88 0 01-2.36-8.26 28.61 28.61 0 018.14-13.35 62.88 62.88 0 0117-11.23 12 12 0 001.08-.66h-1.26c-12.28 1.5-24.55 1.88-36.8-.18-1-.17-3-.61-2.94-1.15 0-.77 2.17-.41 3.21-.27a125.62 125.62 0 0022.94.69c8.91-.52 17.79-1.15 26.55-3 10-2.12 20.12-3.81 30.45-2.54h.72a2.32 2.32 0 00-.5-.49c-1.36-.64-2.72-1.29-4.11-1.88a490 490 0 01-63.95-32.53c-10.61-6.45-21.47-11-33.72-12.66-4.18-.53-8.85-.67-12.96-.99zm-28.6 47.82a103.6 103.6 0 01-8.46 7.49c-6.54 5.17-12.62 10.74-17.15 17.86-1.57 2.48-3.57 4.7-5.24 7.13a23.13 23.13 0 00-1.89 3.87c-.17.41-.39 1.15 0 1.44s1-.1 1.38-.33c1.8-1 3.6-2.06 5.35-3.17 3.83-2.42 7.61-4.9 11.42-7.34a10.86 10.86 0 012-1.06c1.75-.66 2.78-.21 3.3 1.62.62 2.16 1.07 4.37 1.54 6.59.3 1.47 1 1.76 2.24.94a23.68 23.68 0 007.23-7c2.37-3.9 5-7.63 7.66-11.38a2.42 2.42 0 013.93-.31 19.27 19.27 0 013.1 4.19c1 1.63 1.64 3.39 2.46 5.09.46 1 1 1 1.62.12 1.51-2.31 3.15-4.55 4.46-7a190 190 0 0011.27-26.49c.72-2 1.63-3.94 2.5-5.89s2-2.73 4.31-2.56c3 .22 5.88.5 8.83.71.59 0 1.47.39 1.81-.17s-.49-3.09-.87-3.61a22.48 22.48 0 00-8.34-7.05c-7.12-3.52-14.51-4.44-22.33-6.14-8.76-1.89-17.42-3.95-24.64-9.75a2.5 2.5 0 00-2 0 76.77 76.77 0 00-28.72 19.64c-10.88 11.85-21.34 24.11-32 36.15C80 344.91 77 348 74 351.17c-.29.3-.86.66-.7 1.06s.84.21 1.26.25a41.62 41.62 0 014.49.45c3.5.77 4.63 3.05 3.23 6.34-.74 1.73-1.6 3.4-2.34 5.13-.18.41-.49 1.06-.13 1.41s1.06.1 1.45-.12c3-1.65 5.88-3.33 8.75-5.1 1.33-.82 2.45-2 3.8-2.77 2.43-1.41 4.64-.5 5.49 2.18.73 2.27 1.24 4.6 2 6.87.3.86.65 2.28 1.64 2.34s1.69-1.37 2-2.23c1.16-3.77 2.25-7.58 3.11-11.43 3.17-14.21 11.66-26.52 20.29-38.17a28.07 28.07 0 014.4-4.65c5.16-4.35 9.8-5.29 15.18-3.76 4.15 1.18 6.43 4.93 5.53 9.42a19.07 19.07 0 01-5.34 9.68zM273 217.42c-.25 2.56-1.31 3.2-3.64 2.19-1.45-.61-2.88-1.25-4.34-1.82-2.06-.79-2.56-.6-2.93 1.65-.6 3.78-1 7.6-1.45 11.39-.14 1.19-.18 2.39-.38 3.56-.39 2.6-1.27 3.28-3.94 3.13-1.25-.06-2.5-.23-3.75-.26-1.56 0-2.13.88-1.95 2.31a7.12 7.12 0 00.52 2.38c2.26 4.26 4.56 8.51 7 12.69a4.09 4.09 0 002 1.33c8.95 3.85 15.87 10.25 22.07 17.52a8.77 8.77 0 011.67 3.9c.32 1.61-.76 2.57-2.36 2.17a12.87 12.87 0 01-3.72-1.56 66 66 0 01-20-18.85 8.09 8.09 0 00-6.82-3.8c-1.69-.08-1.94.17-1.24 1.78a24.93 24.93 0 006.13 8.72c1.07 1 2.09 2 3.22 2.9 4.06 3.16 4.53 7.29 3.32 11.88-.57 2.18-1.29 4.33-1.94 6.49a3.68 3.68 0 00-.16.54c-1.28 4.86 0 6.23 4.92 5.17a12 12 0 012.8-.27c2.6.08 3.72 1.26 3.82 3.89.37 9.63 5.63 15.58 14.95 18.06 6.74 1.79 10-1.37 11.79-6.2 1.61-4.41 2.68-9 3.93-13.54a3 3 0 00-.12-1.65c-6.69-19.86-10.88-40.37-16-60.63-2.26-8.89-4.78-17.72-9.39-25.77-.5-.88-.91-2.61-1.87-2.41s-.88 1.82-1.08 2.78-.09 1.37-.34 2.91c0 0-.19 1.47-.19 1.51-.46 3.81-.34 3.62-.53 5.91zm8.7 60.82c.58-.15.74-1 .67-1.3a4.9 4.9 0 00-.9-2 60.66 60.66 0 00-19.24-16.23c-.36-.18-1-.65-1.22-.32s.34.77.59 1.1c4.65 6.2 7.29 10.65 13.43 15.37 1.09.84 4.91 3.88 6.67 3.4zM98.56 297.82a25.71 25.71 0 005.81.33 14.21 14.21 0 004.6-1.43 2.19 2.19 0 001-1.78 2.27 2.27 0 00-1.45-1.48 16.13 16.13 0 00-4.84-.62c-4.08.24-8.22 1.44-12.33 2.27-.26.05-.72.18-.72.49s.5.37.77.44a67.06 67.06 0 007.14 1.78zm41-134.59a43.62 43.62 0 00-.31-7.12c0-.25-.15-.71-.4-.74s-.41.32-.5.53c-1.95 4.68-3.92 9.35-5.77 14.08-.23.59-.21 1.83.43 2.23s2-.19 2.52-.72a13.31 13.31 0 004-8.26z"></path>
    <path d="M753.19 375.39c-3.58 6-6.82 10.16-9.86 14.41a148.19 148.19 0 01-22.51 25c-.85.75-1.67 1.52-2.5 2.27 1-.45 2.11-.84 3.1-1.38 5-2.76 9.93-5.78 15.08-8.28 8.2-4 16.52-7.69 24.89-11.31 7.79-3.38 16-5.37 24.27-7.3 12.74-3 25.56-2.95 38.51-2 3 .22 6.22-.77 9.06-1.91 4.5-1.81 8.77-4.23 13.15-6.35 1.17-.57 1.39-1.29.66-2.34-1.91-2.68-3.81-5.37-5.76-8-.86-1.18-1.77-1.12-2.87-.12-2.87 2.61-6.38 3.41-10.15 3.19-2.72-.15-4.26-1.28-4.51-3.11-.31-2.16 1.36-4.49 3.66-5.35 3.18-1.18 6.27-.7 9.35.35.49.17 1 .39 1.46.52s1.17.58 1.58.25.36-1.49.08-2c-1.85-3.36-3.88-6.63-5.75-10-3.37-6-4.24-13.32-.44-18.5 1.09-1.5 2.42-2.82 4.38-2.27s3.07 2.34 3.6 4.29c.36 1.31.44 2.69.72 4 .06.32.28.84.64.86s.53-.41.64-.68c.76-1.92 1.45-3.86 2.21-5.78.65-1.62 1.28-3.26 2.07-4.81a3.23 3.23 0 013.88-1.53c1.65.39 3.1 1.37 3 3.33-.16 2.32-.55 4.63-.94 6.93-.48 2.84-1.06 5.73.37 8.41a12.35 12.35 0 003.21 4.28c.46.33 1.06.72.9 1.19s-1 .6-2.1 0a10.52 10.52 0 01-3.55-2.72c-2.95-3.65-2.66-7.8-1.36-12a26.48 26.48 0 001.21-4.91c.09-.86 0-2.32-.93-2.68s-2.19.57-2.57 1.25a35.43 35.43 0 00-2 5.24 36.66 36.66 0 01-2 5 3.3 3.3 0 01-2.36 1.58c-.64 0-1.56-1.1-1.86-1.9-.63-1.7-.84-3.56-1.45-5.28a3.46 3.46 0 00-1.69-2.11c-.57-.16-1.67.67-2.18 1.33a11 11 0 00-1.68 10.42 75.61 75.61 0 004.93 11c1.47 2.85 4 5.3 2.52 9-.06.15.29.48.46.68 3.73 4.48 3.85 5.52 7 9.85.59.81 1.49.46 2.16-.19 5.35-5.14 10.55-10.4 13.95-17.14.6-1.2.67-1.71-.84-2.19a3.22 3.22 0 01-2.5-4c.42-2.81 2.23-5.31 4.09-5.43a2.13 2.13 0 012.43 2 16.79 16.79 0 010 4.8c-.47 2.45-.52 2 1.55 1.74a90.54 90.54 0 0015.4-3.19c5-1.55 9.77-4 14.67-6 3.18-1.3 6.38-2.63 9.68-3.61a9.19 9.19 0 014.8 0c2.72.73 3.3 4 1.14 6.11-2.36 2.33-4.9 4.48-7.36 6.7-2.07 1.88-2 1.94.18 3.69a68.51 68.51 0 015.85 5.7 1.78 1.78 0 01.3 1.65c-.36.49-1.21.54-1.85.66-1 .18-2.38-.38-2.91.47s.79 2.17 1.34 3.18a24.2 24.2 0 013.39 11.12 3.45 3.45 0 01-.17 1.53c-.46 1-.88 2.41-1.68 2.74s-2.17-.5-2.8-1.24c-2.7-3.24-5.22-6.67-7.88-10-3.84-4.77-7.73-9.51-13.41-12.28-.73-.36-1.84-1.09-2.47-.52s-.06 1.81.25 2.58c1.79 4.36 5 7.75 7.94 11.29a60 60 0 0015.76 13.05 32.35 32.35 0 016.33 5c2.13 2.13 2 5.14.18 7.69a5.25 5.25 0 01-6.82 1.51c-2.79-1.52-5.28-3.6-8-5.21a48.41 48.41 0 00-6.52-3.06c-1.47-.6-2.7-.18-3.07 1.61 0 .06-.07.11-.1.16-.37 1.65-1.1 3.36-1 4.93 0 .72 2.68 1.61 4.14 2.2 10.26 4.18 20.23 8.91 29.34 15.26 4.13 2.88 7.9 6.26 11.91 9.36a3 3 0 002.05.6c6.93-1.13 13.63-6.67 14.52-13.64a6.17 6.17 0 01.84-2.38c.7-1.13 1.7-1.8 3.12-.95 5.72 3.44 12.23 5 18.37 7.34a33 33 0 015.1 2.42c4.75 2.86 5.07 7.61.88 11.29-2.87 2.52-6.43 3.65-9.86 5.08a28.51 28.51 0 00-5.28 2.9c-1.86 1.27-1.67 2.86.42 3.76 2.94 1.25 5.84 1.22 8.43-.94 1-.82 1.82-1.86 2.86-2.62a15.06 15.06 0 014.13-2.46 3.84 3.84 0 013 .9 2.85 2.85 0 01.37 2.58c-.91 2-2.18 3.8-3.25 5.71a13 13 0 00-1.06 2.45 2 2 0 001.62 2.79c2.83.62 5.69 1.16 8.52 1.81a27.26 27.26 0 015 1.38 3.52 3.52 0 012 2.34c0 .74-1 1.9-1.9 2.29-3.07 1.41-6.26 2.57-9.41 3.83-2.09.85-2.51 1.7-1.28 3.57 1.51 2.27 3.31 4.35 5 6.52a30 30 0 012.77 3.76c.4.74.58 2.24.15 2.63a3.21 3.21 0 01-2.77.39 70.65 70.65 0 01-8.33-3.63 60.89 60.89 0 01-16.64-12.2 108.49 108.49 0 01-9.6-12.08 138.15 138.15 0 00-18-21 2.36 2.36 0 00-1.75-.53c-4.5.7-7.42.69-11.9 1.47-.26 0-2.05.6-2.32.66-.72.19-2.82.76-2.81 1.5s2.68 1.84 3.32 2.1c3.65 1.52 6.87 2 10.4 3.79 2.51 1.24 4.06 3.65.71 5.93a33.33 33.33 0 01-4.09 2.67 35.68 35.68 0 00-14.33 11.71 10.5 10.5 0 00-1.05 1.6c-1.18 2.54-.71 3.38 1.9 4.61s4.67.78 7.17-.81c5.88-3.76 12.13-6.93 19.2-7.88a10.23 10.23 0 013.49.16c2.39.52 3 2.49 1.2 4.13a23 23 0 01-10.94 5.79c-4 .86-8.21 1.07-12.25 1.94-1.65.35-6.11.93-6.46 2.68-.48 2.49 2.66 2.68 3.09 2.78 2.33.51 5.93 1 8.3 1.33 3.41.46 5.72.39 9.11.92.85.13 1.3.38 1.32 1a3.24 3.24 0 01-.89 1.53c-2.33 2.8-5.76 6.1-6 9.9a18.73 18.73 0 001.37 7.13c1.65 3.94 5.78 4.54 9.78 2.81 1.73-.76 3.34-1.6 5.08-2.36 1.93-.85 2.13-.27 3.16 1.67 1.74 3.31 6.61 5.53 10.18 5.11 2.06-.23 1.79-1.66.82-3.42a13.27 13.27 0 01-1.22-2.65c-.59-2.05.25-3.17 2.44-3.24 3-.1 6 0 9-.16a19.61 19.61 0 003.66-.64c.35-.08 1.88-.71 1.8-1.12s-1.28-.64-1.64-.73c-2.78-.66-5.09-2.3-7.78-3.24-5.52-1.92-7.77-4-10.5-10.33a19.77 19.77 0 01-1.63-4.59c-.12-.62-.36-1.82.3-2s.81.9 1 1.43c.83 1.91 1.55 3.86 2.37 5.78 2.13 5.08 6.1 7.92 11.28 9.35 2.44.67 4.85 1.4 7.29 2.09 1.2.35 2.44 1 2.17 2.28a3.31 3.31 0 01-2.3 2c-4.22.64-8.47 1-12.73 1.46-1.08.11-2.71-.61-3.25.34s.77 1.77 1.22 2.63c.65 1.25 1.78 2.55.76 3.93-1.33 1.79-3.51 2.11-5.5 1.8a11.32 11.32 0 01-8.2-5.16c-1.29-2-2.06-2.14-4.15-1a30.39 30.39 0 01-6.27 2.6c-3.35.9-6.71-1.43-8.2-4.94-2.57-6-1.31-10.31 2.72-15 .25-.29 1.08-1.4 1.35-1.68s1-1.09.94-1.3c-.1-.48-1.42-.28-1.91-.33-5.17-.53-10.31-1-15.46-1.55a6.6 6.6 0 01-2.2-.75c-2.92-1.41-3.32-3.57-1-5.87.86-.87 1.17-1.27-.34-1.46a6 6 0 01-1.45-.56c-2.93-1.3-4.72-3.52-2.31-7.47 3.56-5.82 8.68-9.71 14.47-13a53.46 53.46 0 005.29-3.33c1.1-.8 1.27-1.87-.23-2.54-1.77-.79-3.56-1.52-5.36-2.25-2.7-1.11-5.48-2-8.08-3.33-2.35-1.16-2.44-3.36-.09-4.43a45.52 45.52 0 018.32-2.55c2.08-.5 4.24-.62 6.36-.95.34-.05.89-.11 1-.46s-.35-.71-.64-.92c-4.82-3.63-9.5-7.44-14.51-10.77-8.53-5.64-17.9-9.64-27.4-13.36-2.21-.87-2-1.09-3 1.22a73.29 73.29 0 01-4.49 9c-1.61 2.6-3.75 2.35-5.16-.38-.45-.87-.71-1.83-1.17-2.68-.26-.48-.55-1.25-1.11-1.26s-1 .73-1.16 1.21c-.84 2.31-1.55 4.67-2.33 7a28.64 28.64 0 01-5.31 9.87c-.85 1-1.82 2.41-3.19 1.54a4.26 4.26 0 01-1.64-3.15c0-3.29.88-6.33 1.08-9.61 0-.45.32-2.5-.09-2.7s-1.48 1.31-1.77 1.61c-1 .91-2.1 2.57-3.32 2.07s-1-1.89-1.1-3.56v-1.52c0-.83.15-1.79-.64-2-.5-.17-1.57.63-2.18 1-1.48 1-2.69 2-4.15 3-1.22.82-2.75 1.37-3.79.33a5 5 0 01-1.27-3.61c.47-4.71 1.28-9.41 1.95-14.1.12-.83.23-1.65.4-2.45.46-2.24-.11-2.83-2.24-3.16a212.21 212.21 0 00-30.8-2.93 159.36 159.36 0 00-19.29.85 131 131 0 00-16 3.31 129.68 129.68 0 00-12.57 3.59c-5.23 1.84-10.36 4-15.47 6.08-3 1.25-5.95 2.65-8.84 4.14-6.31 3.27-12.56 6.65-18.83 10-4.15 2.2-8.28 4.43-12.47 6.58-5.1 2.61-10.24 5.15-15.37 7.73a11.55 11.55 0 00-1.37.95 13 13 0 001.65.05c4.06-.48 8.09-1.25 12.15-1.42 8-.33 15.54 1.95 22.88 5a64 64 0 0121 14 59.37 59.37 0 0110.39 13.85c3 5.73 7.55 7.28 13.27 7.34 1.67 0 3.34-.25 5-.36.33 0 .92-.16 1 .17s-.46.73-.74.76a35.27 35.27 0 01-5.58.55c-2.28-.07-4.54-.5-6.81-.77-.36 0-.74 0-1.1-.05a6 6 0 00.28 1.24c1.71 3.87 3.47 7.72 5.18 11.59a81.28 81.28 0 015.37 19.12c1.85 10.63.89 21.23.2 31.88-.77 11.81-1.19 23.64-1.82 35.45a2.92 2.92 0 001.35 2.93c3.73 2.65 7.53 5.11 12.15 5.82a16 16 0 003.85-.08c1.94-.18 1.67-1.25.77-2.36-1.05-1.32-2.21-2.55-3.31-3.84-.8-.93-1.59-1.88-2.34-2.84-1-1.28-2-2.92-.87-4.23a6.48 6.48 0 014.09-1.65c2.57-.2 5.21.38 7.74.07a30.93 30.93 0 007.85-2.12c2.69-1.13 2.73-2.8.37-4.69-1.65-1.34-3.53-2.4-5.12-3.81a34 34 0 01-4.85-5c-3.51-4.69-.21-8.12 3.76-8.89 3.68-.71 3.64-.64 2.16-4.09-1.7-3.95-3.25-8-4.94-11.92a82.36 82.36 0 00-12.1-19.8c-1.33-1.6-2.46-3.38-3.63-5.11a7.58 7.58 0 01-.9-1.8 3 3 0 01.74-3.29c1-.68 2.44.14 3.45.64 5.53 2.73 9.54 7.14 13.23 12 3 4 6.47 7.69 11 10a24 24 0 006.07 1.75c1.16.26 1.71-.28.86-1.4-1.24-1.66-2.49-3.31-3.84-4.88-2.09-2.47-1.76-3.54 1.41-4.29a17.16 17.16 0 011.69-.5c2.93-.44 4-1.27 2.14-4.56-5.29-9.27-11.27-13.47-21.66-13.72-3-.08-5.94.43-8.92.64-.45 0-1.22.25-1.37-.19s.63-.92 1-1.05a31 31 0 014.93-1.16 28.2 28.2 0 0113.23 1.08c5.36 1.91 9 5.67 12.1 10.09a21.9 21.9 0 012.42 4c1.65 3.91.59 5.28-2.35 6.29-.62.22-1.26.35-1.88.56-.45.15-.89.36-1.33.55.31.4.6.8.92 1.2a28.6 28.6 0 013.46 4.43 4.46 4.46 0 01.17 3.73 4.33 4.33 0 01-3.47 1.42 16 16 0 01-10.19-4.86c-3.29-3.31-6.38-6.81-9.44-10.35a39.36 39.36 0 00-11.04-9.55c-.48-.26-1.14-.87-1.58-.54s-.18 1.38.1 1.85a34.65 34.65 0 003.83 5.87c6.62 7.32 10.46 16.11 13.89 25.18 1.24 3.28 2.94 6.39 4.44 9.57s1 4.25-2.55 5.28c-4.71 1.37-5.77 2.06-2 6.91 1.55 2 3.85 3.41 5.82 5.09.35.29.76.52 1.09.84 1.29 1.23 2.66 2.56 2.27 4.51s-2.21 2.56-3.85 3.32c-4.89 2.26-10.18 2-15.34 2.5-.67.08-1.68 0-2 .64s.42 1.52.88 2.08c1.55 1.93 3.22 3.76 4.82 5.64 1.26 1.46 2.68 3 1.58 5.07s-3.24 2.07-5.21 2c-5.23-.22-8.13-1.88-12.34-4.8-.46-.33-2.24-1.78-2.81-1.67s-.33 1.12-.26 1.6c.8 5.07 1.48 10.14 2.46 15.17.58 3 1.64 5.9 2.46 8.86.08.29.3.86 0 .94s-.36-.46-.45-.72a79 79 0 01-3.13-9.23c-1.11-5.06-1.77-10.23-2.62-15.35-.13-.8 0-2.53-.48-2.91a28.18 28.18 0 00-5.32-3.45c-.48-.22-1.43 1.3-1.66 2a12.43 12.43 0 01-1.06 2.49c-.42.67-1.25 1.81-1.56 1.71a3.61 3.61 0 01-2.06-1.74 36.72 36.72 0 01-1.17-4.73c-.81-3.13-1.46-6.31-2.52-9.35-.93-2.68-3.53-3.07-5.29-.85-2 2.51-3.61 5.28-5.53 7.84-.53.71-1.4 1.8-2.32 1.59s-1.21-1.55-1.38-2.42c-1-4.55-.17-9.05.36-13.55 1.28-10.86 4.88-21.18 7.24-31.78 1.06-4.77 1.27-9.74 1.72-14.63A10.25 10.25 0 00755 503c-.69-2.14-2-2.41-3.52-.74-2.33 2.62-3.24 5.88-4 9.2-1.37 6-.63 12.11-.43 18.18.18 5.67.66 11.39-.87 17a4.14 4.14 0 01-.64 1.6c-.55.64-1.3 1.56-1.92 1.53a2.74 2.74 0 01-1.86-1.63c-1-3-1.75-6.07-2.61-9.12-.19-.69-.45-1.35-.68-2-.4-1.13-1.14-1.26-2-.54-2.57 2.25-4.31 1.32-5.21-2.27-1.09-4.38-.76-8.79-.79-13.2 0-.51-.07-1-.08-1.55-.06-2.49-.37-2.68-2.58-1.38-1.18.69-2.27 1.55-3.45 2.24-2.05 1.21-3.48.49-3.41-1.93a50.42 50.42 0 01.84-7.55c.43-2.42 1.16-4.79 1.75-7.19.08-.34.46-.81.21-1.07s-.93 0-1.28.17c-1.46.83-2.91 1.7-4.31 2.65-2.06 1.39-3 1.16-3.73-1.2a29.8 29.8 0 01-.77-4.58c-.15-1.19-.42-1.87-1.83-1.16a19.52 19.52 0 01-3 1c-1.78.57-2.76-.06-2.9-2-.24-3.19 1-6.06 2.56-8.66 2.8-4.63 5.84-9.13 8.82-13.65 1.15-1.74 2.45-3.39 3.6-5.13 1.3-2 1.17-3.45-.54-5.08-1.51-1.42-3.15-2.7-4.75-4-1.81-1.51-3.51-3-2.42-5.75s3.59-2.69 5.77-2.72c7.52-.12 14.49 2.22 21.22 5.3 6.43 2.93 12.79 6.08 19.21 9.07 1.52.71 3.16 1.24 4.75 1.82a4 4 0 00.91.08 4.58 4.58 0 00-.33-.87c-4.35-7.07-8.94-14-15.6-19.12a78.37 78.37 0 00-20.62-11.52 53.17 53.17 0 00-23.72-3.42c-7.57.74-15.15 1.66-22.34 4.46-3.09 1.2-6.32 2-9.41 3.21a2.78 2.78 0 00-1.41 1.95c-.38 3.35-.54 6.73-.79 10.1-.19 2.51.35 3.42 2.86 3.62 3.1.24 6.25 0 9.34.24 1.49.13 3.58.56 4.26 1.61 1.14 1.76.58 4-.61 5.9a10.13 10.13 0 01-6.93 4.38c-4.48.88-9.07 1.23-13.62 1.82-5.6.72-11.21 1.36-16.77 2.3a3.8 3.8 0 00-2.56 2.49 4 4 0 001.9 3 13 13 0 005.56 1.53c5.81.12 11.57-.31 17-2.82a46.31 46.31 0 016.67-2.26c2.5-.73 3.75.38 3.06 2.93a67.1 67.1 0 01-3 8 35.36 35.36 0 01-2.42 4.65c-1 1.54-.23 2.13 1.17 2.45 2.72.62 5.45 1.19 8.15 1.86a11.06 11.06 0 013.27 1.15c3 1.88 2.8 5.8-.55 8.29-2.29 1.71-4.89 3-7.26 4.58-2.6 1.74-2.78 2.92-1.12 5.53.33.48.64 1 .93 1.5a24.16 24.16 0 011.47 3.19c.92 2.78-.86 4.83-3.86 4.61-4.41-.32-8-2.55-11.54-4.91-7.87-5.29-14-12.35-19.69-19.84a137.23 137.23 0 00-16.64-18c-1.5-1.39-1.26-1.6-2.64-.07-3.89 4.36-9 6.77-14.4 8.74-4.82 1.76-9.79 3.37-14.23 5.84a13.85 13.85 0 00-7.48 13c.1 3.48 1.91 5.25 5.36 5.08 5.62-.27 10.78-2.19 15.72-4.75a4.46 4.46 0 001.45-1.95c2.66-5.08 5.85-9.73 10.87-12.79a7.44 7.44 0 012.68-1.11c1.85-.29 2.91 1.19 1.89 2.78a36 36 0 01-5 6.5 92.49 92.49 0 01-8.23 6.6c-1.78 1.36-1.47 3.41-1.62 5.17-.34 3.8-.25 7.64-.56 11.43-.51 6.27-3.62 11.41-7.5 16.14-2 2.45-4.24 4.74-6.29 7.17a14.87 14.87 0 00-1.84 3c-.85 1.72-.45 2.77 1.47 2.87a30.39 30.39 0 008.09-.44c4.74-1 9.37-2.63 14.08-3.86.82-.21 2.33 0 2.63.47a6.15 6.15 0 01.39 3.28c-.29 3.66-1 7.32-1 11 0 4.89 3.5 7.32 7.54 9a20.43 20.43 0 004.91.95c3.46.45 5.71-1.43 6.85-4.36 2.73-6.95 8-9.48 15-9.61 3.23-.06 6.46-.46 9.69-.78a3.78 3.78 0 003.54-2.64 4 4 0 00-1.32-4.74c-2.44-1.82-5.05-3.41-7.5-5.21-4.37-3.23-8.87-6.32-12.94-9.89s-5.66-8.69-7.39-13.62a52.41 52.41 0 01-1.39-5.09 6.65 6.65 0 01-.11-1.94c0-.25.17-.71.46-.74s.4.35.49.57c.5 1.14 1 2.26 1.42 3.43 1.86 5.77 4.37 11.26 8.81 15.44a133.59 133.59 0 0011.11 8.75c2.85 2.15 6.05 3.94 8.62 6.38 4.45 4.23 2.79 10.29-3.19 11.51-4.42.9-9 1-13.51 1.44-3.57.35-6.54 1.68-8.28 5-.69 1.32-1.28 2.71-2.07 4-2.08 3.28-5 4.94-9 4.42-5.38-.7-10.24-2.49-12.83-7.64-1.93-3.81-1.22-8-.73-12.06.14-1.1.47-2.16.66-3.24.12-.67.7-1.56.2-2s-1.27.16-1.88.33c-5.89 1.62-11.74 3.35-17.67 4.83a11.37 11.37 0 01-5-.08c-4.54-1-4.59-5-2.29-8.24a92.22 92.22 0 017.78-9.25 27.85 27.85 0 007.86-20.74c-.08-2.26.39-4 .48-6.31 0-.31.11-1.19-.12-1.41s-.7.12-1 .25a64.14 64.14 0 01-13.54 4.24c-6.78 1.12-9.89-3.36-9.45-9.26.57-7.64 5-12.76 11.95-15.53 5.36-2.15 11-3.66 16.44-5.57a24.14 24.14 0 009.66-6.33c.81-.87 1-.48-.09-1.42a57.82 57.82 0 00-7.64-5.75c-3.72-2.34-7.44-4.86-11.5-6.46a44.85 44.85 0 00-21.25-2.5c-6.56.71-13.19.89-19.79 1-12.43.18-24.85.14-37.28.11a38.6 38.6 0 01-5.43-.7c-.16 0-.28-.25-.43-.38l.6-.06c6.37.15 12.75.49 19.12.42 9.23-.1 18.46-.4 27.69-.78s18.17-.9 27.08-2.8c5.73-1.22 11.38-2.79 17.06-4.15 2.51-.61 5.05-1.15 7.59-1.66 1.43-.29 2.36-.48 1.69-2.45a24.08 24.08 0 01-1.47-7.37c-.05-5.17 4.61-8.44 9.32-9.66 4.18-1.07 7.8.5 11.32 2.46s6.89 3.17 10.51.89a50.94 50.94 0 005.76-4.65c2.82-2.41 5.57-4.92 8.45-7.26 1.56-1.26 3-.93 3.39 1 .66 3.16.16 5.13.52 8.34.08.7.22 3 .8 3.38s2.72-.65 3.36-.91c3.8-1.55 6.25-2.75 10-4.47 7.26-3.36 14.66-6.53 21.59-10.49a70.53 70.53 0 0012.6-9.85c5.13-4.76 10-9.82 14.72-15 6-6.59 9.31-14.62 11.87-23 1.94-6.38 3.58-12.8 3.27-19.53-.23-4.58-1.2-8.82-4.79-12.19-2.51-2.34-7.2-3.39-10.54-1.41a13.42 13.42 0 00-6.48 7.63c-.58 1.84-.33 3.58 1.22 4.75s3.53.32 4.59-.86a14.57 14.57 0 002.47-5c.19-.53-.06-1.81-.77-2.07s-1.68.43-2.1 1.09c-.24.39-.81 1.1-1 1s.15-1.2.42-1.66c.72-1.25 1.67-2.16 3.39-1.62s1.38 1.46 1.28 2.65a9.55 9.55 0 01-3.46 6.88 4.43 4.43 0 01-5.43.7c-2-1.19-3-2.57-2.64-4.8.89-5.83 6.59-11.94 13.47-11.47a11 11 0 019.12 5.86c2.93 5 3.18 10.52 2.57 16.07-1 8.77-4 16.93-7.43 25a3.1 3.1 0 00-.26.85c.12.07.68-.7.82-.92 4.71-7.59 9.54-14.61 13.89-22.4 3-5.41 5.22-11.3 7.79-16.95.14-.3.32-.94.62-.79s-.07.62-.17.91c-1.81 4.47-3.45 9-5.51 13.37-2.37 5.39-5.07 11-7.32 14.78zm-2 187.94l.91-1.33a16.91 16.91 0 013.47-4c2.5-2.26 4.92-1.88 6.44 1.1a19 19 0 011.69 5c.64 3.31 1 6.66 1.57 10 .07.46.53 1.33 1 1.36s.94-.84 1.11-1.28c2.27-6.12 2.13-6.29 7.87-3.12 1.13.62 1.35.36 1.41-.7q.43-9.83.89-19.63.54-11.93 1-23.87c.48-10.52.17-21-2.36-31.29a112 112 0 00-9.4-23.95 2.44 2.44 0 00-1.29-1c-2.27-.82-4.58-1.48-6.84-2.32-8.85-3.24-17.61-6.78-26.56-9.69-4.32-1.41-9-1.72-13.53-2.4-.72-.11-2-.05-2.32.71s.74 1.58 1.31 2.17c1.41 1.43 3 2.7 4.4 4.12 1.82 1.8 2.68 3.93 1.26 6.32-1.14 1.93-2.55 3.7-3.79 5.57-2.62 3.92-5.26 7.82-7.78 11.79-1.73 2.73-3.59 5.44-3.77 8.85 0 .55-.37 1.31.07 1.66s1.22-.17 1.8-.35 1.32-.61 2-.78c2.26-.53 3.1.06 3.43 2.4.18 1.35.22 2.72.41 4.07.09.61 0 1.56.58 1.79s1-.53 1.5-.8a65.66 65.66 0 016-3.16c1.29-.53 2.34.22 2.3 1.75a21 21 0 01-.5 3.43c-.82 4.06-1.67 8.13-2.51 12.18-.32 1.56.4 1.27 1.3.74a36.8 36.8 0 014.64-2.67c2-.84 3.17.09 3.14 2.22s-.3 4.4-.23 6.6a87 87 0 00.72 9.68c.33 2.26 1.23 2.47 3.08 1.24 2.29-1.5 3.76-.87 4.38 1.8q1.1 4.63 2.35 9.23a5.81 5.81 0 001.09 1.58 8.24 8.24 0 00.93-1.82c1.15-5.51 0-11-.38-16.48-.53-6.87-1.45-13.7.35-20.54.94-3.59 2.22-6.94 5-9.54 1.29-1.22 2.71-2.23 4.68-1.7s2.94 2.21 3.35 4a21.87 21.87 0 01.42 5.23 63.43 63.43 0 01-3.39 18.5c-3.11 9.81-6.09 19.65-7 30a97.55 97.55 0 000 10.26c0 .39.11 1.09.53 1.16a1.63 1.63 0 001.36-.72c.63-1 1.14-1.94 1.93-3.32zm-80.88-43.88a31.9 31.9 0 007.78 2.7c2.13.47 2.93-.74 2.11-2.79a25.64 25.64 0 00-2.41-4.23c-1.55-2.39-1.35-4.57.84-6.4a31.67 31.67 0 013.06-2.08c1.91-1.23 3.87-2.37 5.71-3.69a3.1 3.1 0 001.31-3.78 4.68 4.68 0 00-2.86-1.93c-2.69-.72-5.49-1.07-8.21-1.7-4.46-1-6.09-1.71-3.09-6.81a109.06 109.06 0 004.82-9.83c.28-.61.62-1.78 0-2.24s-1.44 0-2 .2c-1 .34-1.77 1-2.74 1.42-4.56 1.93-9.14 3.82-14.2 4-3.8.12-7.65.73-11.33-.75-2.24-.9-4.3-2.05-4.56-4.83s2-5.68 5.56-6.17c5-.68 10.07-1.1 15.1-1.64s10-.83 14.82-1.77c2-.37 3.94-1.92 5.45-3.41.81-.8.9-2.65.71-3.94-.07-.49-1.82-1-2.82-1-3.11-.14-6.24.11-9.35-.11-4-.27-5-1.45-4.67-5.49.23-3 .49-6.06.9-9.08.27-2 .55-2-1.52-1.19-4.05 1.6-8.2 3-12.37 4.2-6.4 1.91-12.85 3.65-19.3 5.43-2.63.73-5.27 1.41-7.9 2.12-1.22.33-1.76.81-.86 2.14a39.81 39.81 0 012.81 4.92c2.47 5 3.68 10.08.13 15-1.2 1.67-1.21 1.21.33 2.45 7.51 6 13.46 13.46 19.31 21 5.62 7.21 11.13 14.99 19.47 19.28zm237.31-129.81a68.11 68.11 0 01-23.67-24c-.83-1.41-.71-4.19.18-5.2 1.36-1.57 2.89-1 4.25-.12 2.69 1.66 5.68 3.09 7.83 5.32 4 4.18 7.54 8.84 11.23 13.34 1.12 1.36 2 2.84 3.12 4.21.37.47.89 1.27 1.49 1.11s.55-1.15.74-1.75a2.87 2.87 0 000-1c-.18-4.09-1.79-7.68-3.68-11.21-.65-1.23-1.85-2.95-1.07-4.15s2.39-.26 3.74-.5c.23 0 .89-.06 1-.25s-.07-.53-.2-.72a5 5 0 00-.89-1c-2-1.66-4-3.33-6.06-4.92a2 2 0 01-.36-3.2 49.68 49.68 0 013.73-3.67c1.74-1.64 3.58-3.17 5.2-4.91.51-.55.91-1.94.6-2.35a3.44 3.44 0 00-2.6-1.33 23.26 23.26 0 00-6.46 1.42c-5.54 2.26-10.9 4.94-16.47 7.15a58.8 58.8 0 01-17.56 4.23c-2.94.21-4.57 1-5.9 4-3.07 6.89-8.3 12.31-13.89 17.29a2.4 2.4 0 00-.89 2.59 62.44 62.44 0 01.9 9.25c0 1.42.36 1.75 1.59 2 3.68.81 7.37 1.63 11 2.69 7.53 2.19 15 4.56 22.51 6.84 1 .29 1.63.13 1.8-1.05a23.51 23.51 0 01.73-3.43c1-3.29 2.89-4.2 6.23-3.24 3.52 1 6.41 3 9.29 5.2a33.09 33.09 0 005.72 3.28 2.93 2.93 0 003.73-.78c1.86-2.29 2.11-4.31-.49-6.58a46.11 46.11 0 00-6.46-4.55zm76.3 86.92c1.63.81 3.27 1.62 5 2.33 1 .41 2.36 1.75 3 .93s-1-2.12-1.67-3c-2-2.59-4.16-5-6.07-7.67-2.09-2.92-.92-4.91 1.66-5.94 2.41-1 4.93-1.72 7.33-2.73 1.19-.5 3.42-.77 3.32-2.08s-2.47-1.33-3.79-1.62c-3.41-.73-6.88-1.16-10.3-1.86-3.88-.8-4.83-3-3-6.81.76-1.6 2-3 2.84-4.55.45-.81 1.63-2 .94-2.66s-2 .61-2.75 1.19a41.78 41.78 0 00-3.75 3.41c-3.42 3.36-8.86 2.78-11.61 1-2.56-1.66-4-3.94-1.23-6.85a9.16 9.16 0 012.65-2c1.95-.9 4-1.5 6-2.37a36.69 36.69 0 007-3.45c4.22-3.1 4-6.36-.41-9.19a5.18 5.18 0 00-.86-.4l-21.43-8.06c-.8-.3-1.14-.27-1.27.73a16.42 16.42 0 01-.93 4c-2.25 5.67-6.54 9.24-12.16 11.43-2.7 1.05-2.58 1.06-.54 3.42 4.56 5.24 9.48 10.25 13.44 15.93 7.67 11.02 16.39 20.81 28.59 26.87zm-96.35-72.31c.51-1.43.59-1.2-1-1.74-3.88-1.35-7.79-2.52-11.74-3.57-7.2-1.93-14.45-3.66-21.67-5.59-1.28-.34-1.51.17-1.66 1.12-.08.45-.07.91-.15 1.35-1 5.36-1.93 10.72-2.83 16.09-.11.69-.29 1.74.32 2.18s1.74-.1 2.4-.48c1.63-.95 3.15-2.09 4.69-3.19s2.63-.92 3.2 1a27.12 27.12 0 01.52 3.63c.08.48-.11 1.25.35 1.43s.92-.48 1.29-.81c.91-.84 1.69-1.81 2.64-2.59.45-.37 1.2-.91 1.75-.62s.42 1 .4 1.53c0 1.22-.22 2.43-.3 3.66-.22 2.76-.46 5.52-.58 8.28 0 .66-.1 1.78.56 2s1.39-.81 1.72-1.42c1.67-3.14 3.32-6.31 4.78-9.55 1-2.17 1.53-4.55 2.51-6.72 1.14-2.48 3.17-2.62 4.82-.47a15.44 15.44 0 011.31 2.17c1.35 2.53 1.34 2.53 3 0a81 81 0 003.67-7.69zm-262.34 37.09a5.81 5.81 0 00-.65 2.89 50.45 50.45 0 001.14 7.44c.45 1.81.1 1.8 2.29 1.24 4.92-1.24 9.83-2.56 14.66-4 8.77-2.68 17.53-5.42 26.22-8.36 1.87-.64 1.81-.31 1.86-1.9a56.57 56.57 0 00-.61-9.64c-.27-2-.91-2.07-2.38-.68q-4.39 4.14-8.65 8.44c-3 3-6.23 5.78-10.65 5.07-3-.49-6-2-8.79-3.46-5.11-2.71-12.02-2.13-14.44 2.96zm5.43 33.66a9.92 9.92 0 00.9-4.49c.24-4.27-1.93-7.77-4-11.25s-2.08-3.46-6-2.71c-.26.05-.51.08-.77.14l-19 4.27a11.42 11.42 0 00-2.42.74 20.8 20.8 0 002.76.53 37.78 37.78 0 013.67.9c7.92 2.71 14.82 7.21 21.28 12.41 2.35 1.89 2 2.16 3.56-.54zm202.75-87.05c2.47.32 2.05.19 3 .35 3.7.62 7.4 1.28 11.12 1.87.84.13 1.78.39 1.59-1.22-.2-1.79.07-3.63-.1-5.43-.3-3.22-.28-3-3.17-1.56-3.87 2-7.23 3.15-11.19 4.94-.27.12-1.41.63-1.44.92.01.08.18.1.19.1zm-7.12-18.86c2.39 1.57 9.44-.47 11.41-2.35 1.6-1.52 1.22-1.61.33-1.95a31.6 31.6 0 00-6.63-1.44c-2-.29-4.32 1.37-5.56 3.13a1.64 1.64 0 00.45 2.58zm119.26 93.57a2.48 2.48 0 00.25-1c-.23-1.32-2.3-.68-2.88-.58a50.45 50.45 0 00-16 5.31c-.16.09-6.15 3.4-5.8 3.78s6.68-.71 6.88-.72c5.75-.4 10-.8 14.8-4a9.12 9.12 0 002.75-2.78zM627.1 497.77c.67-1.12 1.15-2.19.61-2.68s-1.4.28-2 .65c-3.57 2.37-5.88 5.86-8.19 9.35-.14.22-.34.7-.1.88s.49-.16.65-.31c3.14-2.66 7.13-4.66 9.03-7.89zm236.28-147.93a7.77 7.77 0 00-.66 2.51c-.14 1.51.78 2 2.07 2.57 2.09.89 1.79.14 2-1.83a11.48 11.48 0 000-3.7c-.09-.54-.34-1.36-.85-1.57a2 2 0 00-1.89.61 7.45 7.45 0 00-.71 1.41z"></path>
</svg>